<svg width="32" height="32" viewBox="0 0 32 32" fill="none" xmlns="http://www.w3.org/2000/svg">
<g clip-path="url(#clip0_32_17)">
<path fill-rule="evenodd" clip-rule="evenodd" d="M10.5866 17.4133C10.2121 17.0383 10.0017 16.53 10.0017 16C10.0017 15.47 10.2121 14.9617 10.5866 14.5867L18.1279 7.04267C18.5031 6.66766 19.0119 6.45704 19.5424 6.45717C19.8051 6.45723 20.0652 6.50903 20.3078 6.6096C20.5505 6.71018 20.7709 6.85756 20.9566 7.04334C21.1423 7.22911 21.2896 7.44965 21.39 7.69234C21.4905 7.93504 21.5422 8.19514 21.5421 8.45781C21.5421 8.72048 21.4903 8.98056 21.3897 9.22321C21.2891 9.46585 21.1417 9.68632 20.9559 9.872L14.8293 16L20.9573 22.128C21.1484 22.3124 21.3009 22.533 21.4058 22.777C21.5107 23.0209 21.566 23.2834 21.5684 23.5489C21.5709 23.8145 21.5204 24.0779 21.42 24.3237C21.3195 24.5695 21.1711 24.7929 20.9834 24.9808C20.7957 25.1686 20.5725 25.3173 20.3267 25.4179C20.081 25.5186 19.8177 25.5693 19.5521 25.5672C19.2865 25.565 19.0241 25.5099 18.78 25.4052C18.536 25.3005 18.3152 25.1483 18.1306 24.9573L10.5839 17.4133H10.5866Z" fill="#F8F8F8"/>
</g>
<defs>
<clipPath id="clip0_32_17">
<rect width="32" height="32" fill="white"/>
</clipPath>
</defs>
</svg>
