<svg width="32" height="32" viewBox="0 0 32 32" fill="none" xmlns="http://www.w3.org/2000/svg">
<g clip-path="url(#clip0_32_13)">
<path fill-rule="evenodd" clip-rule="evenodd" d="M21.4133 14.5867C21.7878 14.9617 21.9982 15.47 21.9982 16C21.9982 16.53 21.7878 17.0383 21.4133 17.4133L13.8719 24.9573C13.4967 25.3323 12.9879 25.543 12.4575 25.5428C11.927 25.5427 11.4183 25.3319 11.0433 24.9567C10.6683 24.5815 10.4576 24.0727 10.4578 23.5422C10.4579 23.0117 10.6687 22.503 11.0439 22.128L17.1719 16L11.0439 9.872C10.6794 9.49497 10.4776 8.98986 10.4819 8.46546C10.4862 7.94106 10.6963 7.43933 11.067 7.06834C11.4376 6.69735 11.9391 6.48677 12.4635 6.48197C12.9879 6.47717 13.4932 6.67852 13.8706 7.04267L21.4146 14.5853L21.4133 14.5867Z" fill="#F8F8F8"/>
</g>
<defs>
<clipPath id="clip0_32_13">
<rect width="32" height="32" fill="white"/>
</clipPath>
</defs>
</svg>
