<svg width="12" height="13" viewBox="0 0 12 13" fill="none" xmlns="http://www.w3.org/2000/svg">
<path d="M1.78333 12.0001H10.55L9.5 4.66675H2.83333L1.78333 12.0001ZM6.16667 3.66675C6.45556 3.66675 6.69444 3.56953 6.88333 3.37508C7.07222 3.18064 7.16667 2.94453 7.16667 2.66675C7.16667 2.37786 7.07222 2.13897 6.88333 1.95008C6.69444 1.76119 6.45556 1.66675 6.16667 1.66675C5.88889 1.66675 5.65278 1.76119 5.45833 1.95008C5.26389 2.13897 5.16667 2.37786 5.16667 2.66675C5.16667 2.94453 5.26389 3.18064 5.45833 3.37508C5.65278 3.56953 5.88889 3.66675 6.16667 3.66675ZM7.9 3.66675H9.5C9.75556 3.66675 9.97778 3.7473 10.1667 3.90841C10.3556 4.06953 10.4667 4.27786 10.5 4.53341L11.5333 11.8667C11.5778 12.1667 11.5028 12.4306 11.3083 12.6584C11.1139 12.8862 10.8611 13.0001 10.55 13.0001H1.78333C1.47222 13.0001 1.21945 12.8862 1.025 12.6584C0.830556 12.4306 0.755556 12.1667 0.800001 11.8667L1.83333 4.53341C1.86667 4.27786 1.97778 4.06953 2.16667 3.90841C2.35556 3.7473 2.57778 3.66675 2.83333 3.66675H4.43333C4.34444 3.51119 4.27778 3.35286 4.23333 3.19175C4.18889 3.03064 4.16667 2.85564 4.16667 2.66675C4.16667 2.11119 4.36111 1.63897 4.75 1.25008C5.13889 0.861192 5.61111 0.666748 6.16667 0.666748C6.72222 0.666748 7.19444 0.861192 7.58333 1.25008C7.97222 1.63897 8.16667 2.11119 8.16667 2.66675C8.16667 2.85564 8.14444 3.03064 8.1 3.19175C8.05556 3.35286 7.98889 3.51119 7.9 3.66675ZM1.78333 12.0001H10.55H1.78333Z" fill="#1D1D1D"/>
</svg>
